<?xml version="1.0" encoding="utf-8"?>
<!-- Generator: Adobe Illustrator 20.1.0, SVG Export Plug-In . SVG Version: 6.00 Build 0)  -->
<svg version="1.1" id="Layer_1" xmlns="http://www.w3.org/2000/svg" xmlns:xlink="http://www.w3.org/1999/xlink" x="0px" y="0px"
	 viewBox="0 0 403.1 72" style="enable-background:new 0 0 403.1 72;" xml:space="preserve">
<style type="text/css">
	.st0{fill:#FF5F00;}
	.st1{clip-path:url(#SVGID_2_);fill:#EB001B;}
	.st2{clip-path:url(#SVGID_2_);fill:#F79E1B;}
	.st3{clip-path:url(#SVGID_2_);fill:#FFFFFF;}
</style>
<rect x="42.5" y="7.7" class="st0" width="31.5" height="56.6"/>
<g>
	<defs>
		<rect id="SVGID_1_" width="403.1" height="72"/>
	</defs>
	<clipPath id="SVGID_2_">
		<use xlink:href="#SVGID_1_"  style="overflow:visible;"/>
	</clipPath>
	<path class="st1" d="M44.5,36c0-11.5,5.4-21.7,13.8-28.3C52.1,2.9,44.4,0,36,0C16.1,0,0,16.1,0,36s16.1,36,36,36
		c8.4,0,16.1-2.9,22.2-7.7C49.9,57.7,44.5,47.5,44.5,36"/>
	<path class="st2" d="M116.5,36c0,19.9-16.1,36-36,36c-8.4,0-16.1-2.9-22.2-7.7C66.6,57.7,72,47.5,72,36c0-11.5-5.4-21.7-13.7-28.3
		C64.4,2.9,72.1,0,80.5,0C100.4,0,116.5,16.1,116.5,36"/>
	<path class="st3" d="M178.4,48.1v-15c0-5.7-3.6-9.5-9.4-9.5c-3.1,0-6.2,0.9-8.4,4.3c-1.7-2.7-4.3-4.3-7.9-4.3c-2.6,0-5.1,0.8-7,3.6
		v-3h-5.2v23.9h5.3V34.9c0-4.2,2.3-6.4,5.9-6.4c3.5,0,5.2,2.3,5.2,6.3v13.3h5.3V34.9c0-4.2,2.4-6.4,5.9-6.4c3.6,0,5.3,2.3,5.3,6.3
		v13.3H178.4z M256.3,24.2h-8.5v-7.3h-5.3v7.3h-4.9v4.8h4.9v10.9c0,5.6,2.2,8.9,8.3,8.9c2.3,0,4.9-0.7,6.5-1.9l-1.5-4.5
		c-1.6,0.9-3.3,1.4-4.6,1.4c-2.6,0-3.5-1.6-3.5-4V28.9h8.5V24.2z M300.7,23.6c-3,0-5,1.4-6.3,3.5v-2.9h-5.2v23.9h5.2V34.7
		c0-4,1.7-6.2,5.1-6.2c1.1,0,2.2,0.2,3.3,0.6l1.6-4.9C303.2,23.8,301.7,23.6,300.7,23.6 M233.5,26.1c-2.5-1.7-6-2.5-9.8-2.5
		c-6.1,0-10,2.9-10,7.7c0,3.9,2.9,6.3,8.3,7.1l2.5,0.3c2.9,0.4,4.2,1.2,4.2,2.5c0,1.9-1.9,2.9-5.5,2.9c-3.6,0-6.2-1.2-8-2.5
		l-2.5,4.1c2.9,2.1,6.5,3.1,10.4,3.1c6.9,0,10.9-3.3,10.9-7.8c0-4.2-3.2-6.4-8.4-7.2l-2.5-0.4c-2.3-0.3-4.1-0.8-4.1-2.4
		c0-1.8,1.7-2.8,4.6-2.8c3.1,0,6,1.2,7.5,2.1L233.5,26.1z M373.1,23.6c-3,0-5,1.4-6.3,3.5v-2.9h-5.2v23.9h5.2V34.7
		c0-4,1.7-6.2,5.1-6.2c1.1,0,2.2,0.2,3.3,0.6l1.6-4.9C375.6,23.8,374.1,23.6,373.1,23.6 M305.9,36.2c0,7.3,5.1,12.6,12.8,12.6
		c3.6,0,6-0.8,8.6-2.9l-2.5-4.2c-2,1.4-4,2.2-6.3,2.2c-4.2,0-7.2-3.1-7.2-7.7s3.1-7.6,7.2-7.7c2.3,0,4.3,0.8,6.3,2.2l2.5-4.2
		c-2.6-2.1-5-2.9-8.6-2.9C311,23.6,305.9,28.9,305.9,36.2 M354.7,36.2v-12h-5.2v2.9c-1.7-2.2-4.2-3.5-7.6-3.5c-6.7,0-12,5.3-12,12.6
		c0,7.3,5.3,12.6,12,12.6c3.4,0,5.9-1.4,7.6-3.5v2.9h5.2V36.2z M335.3,36.2c0-4.2,2.8-7.7,7.3-7.7c4.3,0,7.2,3.3,7.2,7.7
		s-2.9,7.7-7.2,7.7C338.1,43.8,335.3,40.4,335.3,36.2 M272.5,23.6c-7,0-11.9,5.1-11.9,12.6c0,7.6,5.1,12.6,12.3,12.6
		c3.6,0,6.9-0.9,9.8-3.4l-2.6-3.9c-2,1.6-4.6,2.5-7,2.5c-3.4,0-6.4-1.6-7.2-5.9h17.8c0-0.7,0.1-1.3,0.1-2
		C283.8,28.7,279.2,23.6,272.5,23.6 M272.4,28.2c3.4,0,5.5,2.1,6.1,5.8H266C266.6,30.6,268.7,28.2,272.4,28.2 M403.1,36.2V14.6h-5.2
		v12.5c-1.7-2.2-4.2-3.5-7.6-3.5c-6.7,0-12,5.3-12,12.6c0,7.3,5.3,12.6,12,12.6c3.4,0,5.9-1.4,7.6-3.5v2.9h5.2V36.2z M383.7,36.2
		c0-4.2,2.8-7.7,7.3-7.7c4.3,0,7.2,3.3,7.2,7.7s-2.9,7.7-7.2,7.7C386.4,43.8,383.7,40.4,383.7,36.2 M207.8,36.2v-12h-5.2v2.9
		c-1.7-2.2-4.2-3.5-7.6-3.5c-6.7,0-12,5.3-12,12.6c0,7.3,5.3,12.6,12,12.6c3.4,0,5.9-1.4,7.6-3.5v2.9h5.2V36.2z M188.4,36.2
		c0-4.2,2.8-7.7,7.3-7.7c4.3,0,7.2,3.3,7.2,7.7s-2.9,7.7-7.2,7.7C191.1,43.8,188.4,40.4,188.4,36.2"/>
</g>
</svg>
