<svg enable-background="new 0 0 409.8 131.7" viewBox="0 0 409.8 131.7" xmlns="http://www.w3.org/2000/svg"><path d="m235.8 73.6h-9.2c-.3.8-.7 1.6-1 2.4 0 0 0 .1-.1.1-3.1 5.8-7.2 9.9-12.2 12.5-5 2.6-10.8 3.9-17.2 3.9-9 0-16.1-2.7-21.5-8-5.4-5.3-8-12.6-8-21.7h70.4c0-5.8-1-11.1-3.1-15.9-2-4.8-4.8-8.9-8.4-12.4-3.5-3.5-7.8-6.1-12.8-8-4.9-1.9-10.3-2.8-15.9-2.8-5.7 0-10.9.9-15.8 2.8-4.9 1.9-9.1 4.5-12.6 7.9-3.5 3.4-6.3 7.5-8.4 12.3-2 4.8-3.1 10-3.1 15.7 0 5.8 1 11.1 2.9 15.7 2 4.6 4.7 8.6 8.3 11.9 3.5 3.3 7.7 5.8 12.4 7.5 4.7 1.7 9.9 2.6 15.6 2.6 7.7 0 14.9-1.5 21.6-4.5 6.4-2.9 11.4-7.7 15-14.4-.1-.1 3-6.5 3.1-7.6zm-59.3-36.9c4.6-3.8 11.3-5.7 20.3-5.7 3.8 0 7.4.5 10.9 1.5 3.5 1 6.6 2.6 9.4 4.6 2.8 2 5.2 4.6 7.1 7.5 1.9 3 3.1 6.5 3.8 10.4h-61.6c2.1-8.4 5.5-14.5 10.1-18.3z" fill="#fff"/><path d="m401.8 95.4v-9.3c-3.9 4.7-8.7 8.4-14.4 11-5.7 2.6-11.6 3.9-17.7 3.9-5.7 0-11-.9-15.9-2.7-5-1.8-9.2-4.4-12.9-7.8-3.6-3.4-6.5-7.4-8.6-12.2-2.1-4.7-3.2-10-3.2-15.8 0-5.8 1-11.1 3.1-15.9 2-4.8 4.9-8.9 8.6-12.3 3.7-3.4 8-6 13-7.8 5-1.8 10.3-2.7 15.9-2.7 6.8 0 12.8 1.1 17.9 3.3 5.2 2.2 9.9 6 14.2 11.3v-13.2h8v70.2zm0-33.2c0-9.6-3-17.2-9.1-22.7-6.1-5.5-13.7-8.3-23-8.3-4.6 0-8.8.8-12.8 2.2-3.9 1.5-7.3 3.6-10.2 6.4-2.8 2.8-5.1 6.1-6.7 9.9-1.7 3.9-2.5 8.1-2.5 12.6 0 4.6.8 8.8 2.5 12.6 1.7 3.9 3.9 7.1 6.7 9.8 2.8 2.7 6.2 4.8 10.2 6.3 3.9 1.5 8.2 2.2 12.8 2.2 4.6 0 8.8-.7 12.8-2.2 3.9-1.5 7.3-3.6 10.2-6.4 2.8-2.8 5.1-6 6.7-9.8 1.5-3.6 2.4-7.8 2.4-12.6z" fill="#fff"/><path d="m314.6 121.9c-6.9 6.5-16.5 9.8-28.8 9.8-4.1 0-8.3-.4-12.8-1.3-4.4-.8-8.5-2.2-12.2-4-3.7-1.8-6.9-4.4-9.6-7.6-2.7-3.2-4.3-7.2-5-11.9h7.8c1.1 3.5 2.8 6.3 5 8.5 2.2 2.2 4.8 4 7.7 5.3 2.9 1.3 6 2.2 9.2 2.7 3.2.5 6.5.7 9.8.7 9.8 0 17.4-2.7 22.9-8.1 5.5-5.4 8.3-9 8.3-18.8v-11.6c-4.1 5-8.9 8.8-14.4 11.2-5.5 2.4-11.5 3.7-17.9 3.7-5.8 0-11.3-.9-16.3-2.7-5-1.8-9.4-4.4-13.1-7.8-3.7-3.4-6.6-7.5-8.7-12.3-2.1-4.8-3.2-10.2-3.2-16.2 0-5.8 1.1-11.1 3.2-15.7 2.1-4.6 5-8.6 8.6-11.8 3.6-3.2 7.9-5.7 12.8-7.4 4.9-1.7 10.1-2.6 15.6-2.6 6.6 0 12.7 1.1 18.2 3.3 5.5 2.2 10.4 5.8 14.6 10.9v-13.3h8.7v72.5c0 12.5-3.5 17.9-10.4 24.5zm1.2-59.2c0-4.7-.8-9-2.5-12.9-1.6-3.9-3.9-7.1-6.8-9.8-2.9-2.7-6.3-4.8-10.2-6.3-3.9-1.5-8.2-2.2-12.7-2.2-4.4 0-8.5.7-12.4 2.2-3.8 1.5-7.2 3.6-10.1 6.3-2.9 2.7-5.2 5.9-6.8 9.6-1.6 3.7-2.5 7.8-2.5 12.4 0 4.7.8 9 2.5 12.7 1.6 3.8 3.9 7 6.8 9.7 2.9 2.7 6.4 4.8 10.4 6.3 4 1.5 8.3 2.2 12.8 2.2 4.4 0 8.5-.7 12.3-2.1 3.8-1.4 7.2-3.4 10-6 2.8-2.6 5.1-5.7 6.7-9.4 1.7-3.7 2.5-8 2.5-12.7z" fill="#fff"/><path d="m154.5 70.9l-.7 1.9-.6 1.6c-.5 1.4-1 2.9-1.6 4.5-1 2.8-2 5.7-3.1 8.5-.2.6-.5 1.2-.7 1.8-.1.2-.2.4-.2.5 0 0-.1.1-.1.1-.7 1.7-1.5 3.4-2.4 4.9-1.6 2.9-3.8 6.1-7.2 7.1-3.4 1-7.4-.3-10.2-3.3-2.6-2.8-4-6.3-5.3-9.7l-13.3-33.7c-1-2.5-2-5-2.9-7.5-2.6-6.6-5.3-13.4-8.1-20.1-.6-1.5-1.3-3-2.4-4.1-.5-.5-1.2-.9-2-1.1-.1 0-.2 0-.2 0-.4 0-.7 0-1 .1 0 0-.1 0-.1.1-1.1.6-1.7 2.1-2.2 3.6l-1.6 4.9c-4.4 13.2-9.6 26.3-14.6 39l-1.1 2.9c-2.2 5.6-4.5 11.1-7.1 16.4-.1.3-.3.6-.4.8 0 0 0 0 0 .1-.8 1.5-1.5 3.1-2.4 4.6-.9 1.6-2 3.4-3.4 4.7 0 0 0 0 0 0-1.1 1.1-2.3 1.9-3.8 2.4-.8.2-1.6.4-2.4.4-2.7 0-5.6-1.3-7.8-3.7-2.4-2.6-3.8-5.9-4.9-8.9-6.5-16-12.7-31.7-17.9-45-.9-2.4-1.9-4.7-2.8-7.1-1.5-3.9-3.1-7.7-4.5-11.6l-3.9-10.1c-.4-1-.8-2-1.3-2.8-.5-.7-1.2-1.4-1.9-1.4-.8 0-1.6.5-2.6 1.6-1 1-1.9 2.3-2.8 4l-.3.6-2.7-1.3.3-.6c1.1-1.9 2.1-3.4 3.3-4.6 1-1 2.5-2.4 4.6-2.5 1.6-.1 3.2.9 4.4 2.6.8 1.1 1.2 2.3 1.6 3.4l4 10.1c1.5 3.9 3 7.7 4.5 11.5.9 2.4 1.9 4.7 2.8 7.1 5.2 13.3 11.4 29 17.8 45 1.1 2.8 2.3 5.8 4.4 8 1.7 1.8 4.6 3.3 7.2 2.5 1.2-.4 2.2-1.1 3.1-2.1.9-1 1.7-2.3 2.5-3.7.1-.2.2-.4.3-.6.7-1.3 1.5-2.7 2.1-4.1.1-.1.1-.2.2-.3 0 0 0 0 0-.1 0 0 0 0 0-.1 0 0 0 0 0-.1 0 0 0-.1.1-.1.1-.1.1-.2.1-.2 2.5-5.2 4.7-10.5 6.8-15.9l1.1-2.9c5-12.6 10.2-25.7 14.6-38.7l1.2-3.7c0-.1 0-.1.1-.2l.4-1.1c.2-.7.5-1.5.9-2.2 0-.1 0-.1.1-.1.4-.8.9-1.5 1.5-2.1.4-.4.9-.7 1.4-.9.1 0 .2-.1.2-.1.6-.2 1.3-.3 1.9-.3.4 0 .7.1 1.1.1 0 0 .1 0 .1 0 1.2.3 2.3 1 3.1 1.8 1.5 1.5 2.3 3.4 3 5.1 2.8 6.7 5.5 13.5 8.1 20.2 1 2.5 1.9 5 2.9 7.5l13.3 33.7c1.2 3.1 2.5 6.4 4.7 8.7 1.7 1.8 4.6 3.3 7.2 2.5 1.2-.4 2.2-1.1 3-2.1.9-1.1 1.8-2.4 2.5-3.7.1-.2.2-.4.3-.6.5-.8.9-1.6 1.2-2.5 0-.1.1-.2.1-.3 0 0 0 0 0-.1.3-.7.6-1.4.9-2.1.8-1.9 1.5-3.9 2.3-6 .5-1.3.9-2.6 1.4-3.9 1-2.8 1.9-5.5 2.9-8l .9.4.4.1z" fill="#fff"/><path d="m148.6 87.3c-.2.6-.5 1.2-.7 1.8-.1.2-.2.4-.2.5 0 0-.1.1-.1.1-1.8 2.9-4.4 6.2-6.9 7.1-.2 0-.3.1-.5.1-3.2.8-7-.5-9.7-3.5-2.6-2.8-4-6.3-5.3-9.7l-13.3-33.7c-1-2.5-2-5-2.9-7.5-2.6-6.6-5.3-13.5-8.1-20.1-.6-1.5-1.3-3-2.4-4.1-.7-.7-1.9-1.3-3-1-.1 0-.2 0-.3.1-.7.3-1.2 1.1-1.7 2-.2.5-.4 1.1-.6 1.7l-.5 1.4-1.1 3.5c-4.4 13.2-9.6 26.3-14.7 39l-1.1 2.9c-2.9 7.3-5.8 14.4-9.6 21.2 0 0 0 0 0 0 0 0 0 .1 0 .1-.1.2-.2.4-.3.5-.1.1-.1.3-.2.4 0 0 0 0 0 .1-1.6 2.8-3.7 5.7-6.9 6.7-.1 0-.3.1-.5.1-.6.2-1.3.2-1.9.2-2.7 0-5.6-1.3-7.8-3.7-2.4-2.6-3.8-6-4.9-8.9-6.3-15.9-12.5-31.6-17.8-45-.9-2.4-1.9-4.8-2.8-7.2-1.5-3.8-3-7.6-4.5-11.5l-3.9-10.1c-.4-1-.8-2-1.3-2.8-.5-.7-1.2-1.4-1.9-1.4l1.8-2.5c.9.4 1.8 1.2 2.5 2.2.8 1.1 1.2 2.3 1.6 3.4l3.7 10.3c1.5 3.8 3 7.6 4.5 11.4.9 2.4 1.9 4.8 2.8 7.2 5.2 13.3 11.4 29.1 17.8 45 1.1 2.8 2.3 5.8 4.4 8 1.7 1.8 4.6 3.3 7.2 2.5.8-.2 1.4-.6 2-1.2h0c1.3-1.1 2.3-2.7 3.3-4.3.1-.1.1-.2.2-.3 0 0 0 0 0-.1.1-.2.2-.4.3-.6 0 0 0 0 0 0 0 0 0 0 0 0 3.6-6.6 6.5-13.6 9.4-20.8l1.1-2.9c5-12.6 10.2-25.7 14.6-38.8l1.5-4.4.2-.6c.6-1.8 1.4-3.7 3-4.8v0c .3-.2.6-.4.9-.5.9-.4 1.8-.5 2.7-.4 1.5.2 2.8.9 3.8 1.9 1.5 1.5 2.3 3.4 3 5 2.8 6.7 5.5 13.5 8.1 20.2 1 2.5 2 5 2.9 7.5l13.3 33.7c1.2 3.1 2.5 6.4 4.7 8.7 1.7 1.8 4.6 3.3 7.2 2.5.7-.2 1.4-.6 2.1-1.2l0 0c .9-.7 1.6-1.7 2.3-2.7.1-.1.1-.2.1-.2 0 0 0 0 0-.1.3-.5.6-1.1.9-1.6l2-.6z" fill="#fff"/><path d="m156.7 60.9l1 .5-1.5 4.9-1.4 3.9-.3.7h.1l-.7 1.9-.6 1.6c-.5 1.4-1 2.9-1.6 4.5-1 2.8-2 5.7-3.1 8.5-.2.6-.5 1.2-.7 1.8-.5.7-1 1.3-1.7 1.8-.2.2-.4.3-.6.4-.7.5-1.4.9-2.3 1.2-.1 0-.3.1-.4.1-.4.1-.7.2-1.1.2l0 0c-3 .3-6.2-1-8.7-3.6-2.6-2.8-4-6.3-5.3-9.7l-5.4-13.7-7.9-20c-1-2.5-2-5-2.9-7.5-2.6-6.6-5.3-13.5-8.1-20.1-.6-1.5-1.3-3-2.4-4.1-.8-.8-2.2-1.4-3.3-.9-.5.2-.9.7-1.3 1.2-.4.7-.7 1.5-1 2.4l-.2.5c0 0 0 .1-.1.2l-.7 2-.5 2.2c-.1.2-.1.4-.2.6-.1 0-.2 0-.2 0-4.7 12.2-16.9 43.9-24 60.8 0 0 0 0 0 .1-.4.8-.8 1.5-1.2 2.3-.7 1.2-1.5 2.5-2.4 3.6 0 0 0 0 0 0 0 0 0 .1 0 .1 0 0 0 .1-.1.1-.9 1.2-2 2.2-3.4 2.8-.4.2-.8.4-1.3.5-.1 0-.3.1-.4.1-.4.1-.7.2-1.1.2h0c-.3 0-.5 0-.8 0-2.7 0-5.6-1.3-7.8-3.7-2.4-2.6-3.8-6-4.9-8.9-6.2-15.6-12.2-30.8-17.8-45-.9-2.4-1.9-4.8-2.8-7.2-1.5-3.8-3-7.6-4.5-11.5l-4.1-10c-.4-1-.8-2-1.3-2.8-.7-.9-1.4-1.4-2-1.4l1.8-2.5c.9.4 1.8 1.2 2.5 2.2.8 1.1 1.2 2.2 1.6 3.4l3.9 10.1c1.5 3.8 3 7.6 4.5 11.4.9 2.4 1.9 4.8 2.8 7.2 5.6 14.2 11.6 29.4 17.8 45 1.1 2.8 2.3 5.8 4.4 8 1.7 1.8 4.6 3.3 7.2 2.5 1.1-.4 2.1-1.1 3-2 0 0 0 0 0 0 0 0 0 0 .1-.1 0 0 .1-.1.1-.1 0 0 0 0 0 0 0 0 0 0 0 0 .9-1 1.6-2.2 2.3-3.5 3.8-6.8 6.8-14.1 9.8-21.5l1.1-2.9c5.1-12.7 10.3-25.7 14.7-38.8l1.6-4.9c.1-.2.1-.4.2-.6v0c .7-1.9 1.6-3.9 3.7-4.8.3-.1.7-.2 1-.3 2-.4 4.1.6 5.4 1.9 1.5 1.5 2.3 3.4 3 5 2.8 6.7 5.5 13.6 8.1 20.2 1 2.5 1.9 5 2.9 7.5l13.3 33.7c1.2 3.1 2.4 6.4 4.7 8.7 1.7 1.8 4.6 3.3 7.2 2.5.3-.1.6-.2.8-.4.7-.4 1.4-1 1.9-1.7.9-1.1 1.5-2.4 2.2-3.8.3-.6.6-1.2.9-1.9 1.4-3.2 2.9-7.5 4.5-11.8.7-2 1.4-4.1 2.1-6 .3-.8.6-1.7.8-2.5 1.3-3.6 2.5-7 3.4-9.3l.9.4c-.9 2.4-2 5.1-3.2 8.1z" fill="#fff"/><path d="m163.9 44.7c-1.2 2.3-2.5 5-3.8 8-1.1 2.5-2.2 5.2-3.4 8.2-1.1 2.9-2.3 6-3.5 9.4-1.3 3.6-2.7 7.6-4.1 11.9-.9 2.8-1.9 5.7-2.8 8.7-.1.2-.2.5-.2.7l-.3-.3-1.5-1.2-.8-.7v0c7.1-22.3 13.2-36.8 18.6-46.2" fill="#fff"/><path d="m157.7 61.4l-.5 2.2-1 2.7-1.4 3.9-.3.7-.7 1.9-.5 1.6-4.1 7.9-.2-.1-.7-.2-.7-.2-.1-.1.8-3.7 5.2-13.3 2.3-3 1.2-2.4.7 1.1z" fill="#fff"/><path d="m97.8 10.2l-1.4 4.2-.8 2.4-.2.5c0 0 0 .1-.1.2-.1.3-.4 1-.8 2-.3.7-.7 1.7-1.1 2.8-4.7 12.2-16.9 43.9-24 60.8 0 0 0 0 0 .1-3.8 9.1-7.3 13.8-10 16.3 0 0 0 0 0 0-3.9 3.5-6.4 2.3-6.4 2.3l4.7-3.3 1.3-1.9 3.2-4.5 2.2-3.1-1.4-.7c0 0 0 0 0 0 0 0 0 0 0 0 0 0 0 0 0-.1 0 0 0 0 0-.1 0 0 0-.1.1-.1 0 0 0-.1.1-.2 0 0 0 0 0 0 0 0 0 0 .1-.1 2.5-5.2 4.7-10.5 6.8-15.9l1.1-2.9c5-12.6 10.2-25.7 14.6-38.7l1.2-3.7c0-.1 0-.1.1-.2.4-1.2.8-2.3 1.2-3.3 0-.1 0-.1.1-.1 5.3-13.3 9.4-12.7 9.4-12.7z" fill="#fff"/></svg>